HIERARCHY
ROOT Pelvis
{
	OFFSET 0.000000 0.941512 0.000000
	CHANNELS 6 Xposition Yposition Zposition Zrotation Yrotation Xrotation 
	JOINT Pelvis_L_Hip
	{
		OFFSET 0.000000 0.000000 0.000000
		CHANNELS 3 Zrotation Yrotation Xrotation
		JOINT L_Hip
		{
			OFFSET 0.062321 -0.080322 -0.016990
			CHANNELS 3 Zrotation Yrotation Xrotation
			JOINT L_Knee
			{
				OFFSET 0.093051 -0.381305 -0.029784
				CHANNELS 3 Zrotation Yrotation Xrotation
				JOINT L_Ankle
				{
					OFFSET -0.010371 -0.431000 -0.033614
					CHANNELS 3 Zrotation Yrotation Xrotation
					End Site #name: L_Foot
					{
						OFFSET 0.069299 -0.038670 0.119418
					}
				}
			}
		}
	}
	JOINT Pelvis_R_Hip
	{
		OFFSET 0.000000 0.000000 0.000000
		CHANNELS 3 Zrotation Yrotation Xrotation
		JOINT R_Hip
		{
			OFFSET -0.055334 -0.094904 -0.002373
			CHANNELS 3 Zrotation Yrotation Xrotation
			JOINT R_Knee
			{
				OFFSET -0.064207 -0.384370 -0.019592
				CHANNELS 3 Zrotation Yrotation Xrotation
				JOINT R_Ankle
				{
					OFFSET 0.025418 -0.419734 -0.065953
					CHANNELS 3 Zrotation Yrotation Xrotation
					End Site #name: R_Foot
					{
						OFFSET -0.057233 -0.039888 0.132134
					}
				}
			}
		}
	}
	JOINT Pelvis_Spine1
	{
		OFFSET 0.000000 0.000000 0.000000
		CHANNELS 3 Zrotation Yrotation Xrotation
		JOINT Spine1
		{
			OFFSET -0.005562 0.124093 -0.043360
			CHANNELS 3 Zrotation Yrotation Xrotation
			JOINT Spine2
			{
				OFFSET 0.012244 0.139499 0.029894
				CHANNELS 3 Zrotation Yrotation Xrotation
				JOINT Spine3
				{
					OFFSET -0.002556 0.056561 0.009225
					CHANNELS 3 Zrotation Yrotation Xrotation
					JOINT Spine3_Neck
					{
						OFFSET 0.000000 0.000000 0.000000
						CHANNELS 3 Zrotation Yrotation Xrotation
						JOINT Neck
						{
							OFFSET -0.005205 0.217920 -0.024551
							CHANNELS 3 Zrotation Yrotation Xrotation
							End Site #name: Head
							{
								OFFSET 0.002365 0.091850 0.046637
							}
						}
					}
					JOINT Spine3_L_Collar
					{
						OFFSET 0.000000 0.000000 0.000000
						CHANNELS 3 Zrotation Yrotation Xrotation
						JOINT L_Collar
						{
							OFFSET 0.072225 0.116603 -0.009480
							CHANNELS 3 Zrotation Yrotation Xrotation
							JOINT L_Shoulder
							{
								OFFSET 0.115937 -0.058643 -0.021018
								CHANNELS 3 Zrotation Yrotation Xrotation
								JOINT L_Elbow
								{
									OFFSET 0.021994 -0.254722 -0.024492
									CHANNELS 3 Zrotation Yrotation Xrotation
									End Site #name: L_Wrist
									{
										OFFSET 0.048810 -0.240214 0.103329
									}
								}
							}
						}
					}
					JOINT Spine3_R_Collar
					{
						OFFSET 0.000000 0.000000 0.000000
						CHANNELS 3 Zrotation Yrotation Xrotation
						JOINT R_Collar
						{
							OFFSET -0.073372 0.120704 -0.024611
							CHANNELS 3 Zrotation Yrotation Xrotation
							JOINT R_Shoulder
							{
								OFFSET -0.108089 -0.054969 -0.020504
								CHANNELS 3 Zrotation Yrotation Xrotation
								JOINT R_Elbow
								{
									OFFSET -0.033684 -0.260739 0.009889
									CHANNELS 3 Zrotation Yrotation Xrotation
									End Site #name: R_Wrist
									{
										OFFSET -0.067980 -0.232763 0.118463
									}
								}
							}
						}
					}
				}
			}
		}
	}
}
MOTION
Frames: 5
Frame Time: 0.041667
0.000000 0.949769 0.000000 -1.458678 -4.925892 10.197263 0.000000 0.000000 0.000000 0.887183 -3.354640 -14.324053 2.724549 -0.401672 3.728937 0.368466 1.885943 0.450688 0.000000 0.000000 0.000000 -0.085165 1.735498 -10.264565 2.023083 -0.407901 -2.350667 -2.029885 -12.751543 5.792836 0.000000 0.000000 0.000000 1.298563 0.213479 -5.453410 3.626657 -0.623165 -5.619016 4.859345 4.264382 1.032373 0.000000 0.000000 0.000000 0.250141 -0.068630 -2.166850 0.000000 0.000000 0.000000 27.044519 7.080655 11.453640 -18.815773 2.051342 0.675714 -18.393275 -13.248930 -11.755690 0.000000 0.000000 0.000000 -28.335266 -0.184632 6.507783 29.357426 -2.158990 8.108532 -36.674168 -30.504557 -72.332451 
-0.000544 0.949768 0.001326 -1.710532 -5.868390 9.859647 0.000000 0.000000 0.000000 1.028224 -3.210657 -13.724660 2.808267 -0.420097 3.894867 0.739428 2.562097 0.165586 0.000000 0.000000 0.000000 0.147118 1.708042 -10.076611 2.040570 -0.397026 -2.090441 -1.771214 -12.095891 5.730540 0.000000 0.000000 0.000000 1.133868 0.195136 -5.001041 4.266844 -0.683292 -5.841448 5.166391 3.641734 1.214708 0.000000 0.000000 0.000000 -0.236613 0.149543 -1.639254 0.000000 0.000000 0.000000 27.703120 6.819674 11.195759 -19.638089 2.301325 1.289251 -17.359412 -11.967919 -10.238111 0.000000 0.000000 0.000000 -27.506069 -0.671273 6.959690 29.155980 -1.951742 7.564840 -36.314236 -29.701148 -71.719308 
-0.001258 0.949291 0.002547 -2.066033 -6.887872 9.872975 0.000000 0.000000 0.000000 1.300014 -3.120724 -13.394018 2.937520 -0.434178 3.835515 1.092554 3.403073 0.009175 0.000000 0.000000 0.000000 0.407123 1.710170 -10.056685 2.173284 -0.422084 -2.338323 -1.394682 -11.338316 5.866279 0.000000 0.000000 0.000000 1.056474 0.200898 -4.976013 4.669317 -0.715895 -5.692041 5.454957 3.545253 0.820191 0.000000 0.000000 0.000000 -0.624803 0.327406 -0.865473 0.000000 0.000000 0.000000 27.792316 6.783071 11.015742 -19.518145 2.220480 1.102572 -16.812488 -10.773707 -8.145065 0.000000 0.000000 0.000000 -27.083915 -0.402764 6.792682 28.886533 -1.841554 7.347098 -37.351360 -29.923760 -67.503216 
-0.001856 0.949005 0.003429 -2.124892 -7.583462 10.155644 0.000000 0.000000 0.000000 1.340280 -3.094997 -13.303150 2.947060 -0.422546 3.526182 1.276683 4.012770 0.036296 0.000000 0.000000 0.000000 0.385210 1.737948 -10.213484 2.203202 -0.439709 -2.718661 -1.099701 -10.762582 5.992660 0.000000 0.000000 0.000000 0.906307 0.246849 -5.223234 4.820653 -0.725083 -5.653855 5.559016 3.293681 0.524734 0.000000 0.000000 0.000000 -0.926474 0.473245 -0.303959 0.000000 0.000000 0.000000 27.945169 6.690470 10.831383 -19.453656 2.291231 1.459141 -15.849069 -9.943801 -7.430528 0.000000 0.000000 0.000000 -26.699087 -0.278621 6.731857 28.568136 -1.800994 7.296878 -37.349211 -29.710721 -66.793296 
-0.001853 0.949082 0.003954 -2.116011 -7.914700 10.322072 0.000000 0.000000 0.000000 1.277318 -3.081883 -13.239946 2.964769 -0.414752 3.293767 1.348618 4.373514 0.128974 0.000000 0.000000 0.000000 0.340493 1.765129 -10.369613 2.151666 -0.436325 -2.807731 -0.939271 -10.476698 6.088884 0.000000 0.000000 0.000000 0.940010 0.229482 -5.132760 4.837928 -0.721644 -5.904464 5.494609 2.971636 0.494452 0.000000 0.000000 0.000000 -1.039486 0.529648 -0.050269 0.000000 0.000000 0.000000 28.215007 6.518920 10.661667 -19.643798 2.468042 2.067796 -14.862356 -9.552001 -7.811047 0.000000 0.000000 0.000000 -26.463158 -0.333256 6.815314 28.172595 -1.544148 6.670998 -36.949236 -29.330167 -67.503078 
